<svg width="1755" height="398" viewBox="0 0 1755 398" fill="none" xmlns="http://www.w3.org/2000/svg">
<path d="M153.51 2.10359C151.01 4.90359 0.109732 386.204 0.00973181 390.104C-0.190268 394.804 2.70973 397.904 7.10973 397.904C9.40973 397.904 11.5097 397.204 12.5097 396.104C14.2097 394.204 165.21 13.9036 166.01 9.60359C166.61 5.70359 164.51 2.20359 160.91 0.903589C156.71 -0.496411 155.81 -0.396411 153.51 2.10359Z" fill="#E84575"/>
<path d="M464.21 2.50359C433.81 8.00359 407.11 25.6036 388.01 52.6036C380.81 62.8036 373.31 79.5036 370.71 91.2036C356.71 155.004 394.51 210.404 460.51 222.504C471.61 224.604 525.21 225.704 530.41 224.004C534.51 222.604 536.71 218.704 535.71 214.604C534.41 209.504 534.11 209.404 499.81 208.804C474.31 208.404 466.11 207.904 459.71 206.504C419.81 197.604 392.01 171.104 385.21 135.404C383.51 126.504 383.41 108.704 385.11 98.9036C388.61 78.8036 398.51 60.4036 413.81 45.5036C426.81 32.8036 440.81 24.7036 459.01 19.6036C466.51 17.5036 468.71 17.4036 534.71 16.9036C572.11 16.6036 603.51 16.0036 604.51 15.5036C608.61 13.5036 609.41 7.70359 606.11 3.50359L604.11 0.903592L537.91 1.00359C486.61 1.10359 470.01 1.40359 464.21 2.50359Z" fill="#E84575"/>
<path d="M680.71 3.50357L678.21 6.20357V198.504C678.21 340.104 678.51 391.504 679.31 393.304C681.91 398.904 691.11 398.504 693.11 392.704C693.91 390.504 694.21 332.004 694.21 198.704C694.21 33.1036 694.01 7.40357 692.71 5.00357C690.21 0.103571 684.51 -0.596429 680.71 3.50357Z" fill="#E84575"/>
<path d="M921.91 6.60359C906.31 20.9036 733.91 193.704 733.11 195.704C732.51 197.304 732.71 199.004 733.61 201.204C734.41 203.104 775.31 244.604 830.91 300.104C919.11 388.204 927.01 395.904 930.01 395.904C934.11 395.904 938.21 392.104 938.21 388.204C938.21 385.904 923.71 371.004 844.71 291.904L751.21 198.404L844.21 105.404C895.41 54.2036 937.51 11.6036 937.81 10.6036C939.11 6.40359 934.41 0.903589 929.61 0.903589C928.71 0.903589 925.31 3.50359 921.91 6.60359Z" fill="#E84575"/>
<path d="M991.41 2.90359C988.31 5.90359 988.01 7.70359 988.41 27.1036C988.71 42.7036 988.91 44.9036 990.61 46.8036C993.31 49.8036 999.21 49.6036 1002.01 46.6036C1004.11 44.4036 1004.21 43.4036 1004.21 25.0036C1004.21 6.00359 1004.21 5.80359 1001.71 3.40359C998.71 0.303585 994.41 0.203585 991.41 2.90359Z" fill="#E84575"/>
<path d="M1059.11 2.00358C1055.91 3.20358 1053.81 7.60358 1054.81 11.3036C1056.31 17.3036 1045.51 16.9036 1213.51 16.9036C1311.91 16.9036 1368.01 16.5036 1369.21 15.9036C1371.61 14.6036 1373.31 9.40358 1372.31 6.60358C1370.21 1.10358 1380.51 1.40358 1214.81 1.20358C1117.11 1.10358 1060.71 1.40358 1059.11 2.00358Z" fill="#E84575"/>
<path d="M1527.21 2.90362C1460.41 16.3036 1405.61 64.9036 1382.71 130.904C1375.01 153.304 1372.01 171.504 1372.11 197.404C1372.11 229.204 1377.21 253.104 1390.21 282.004C1414.81 336.604 1469.11 379.504 1528.41 391.004C1605.81 406.004 1685.71 369.004 1726.91 299.104C1743.71 270.604 1752.11 242.604 1754.11 208.404C1757.61 150.504 1737.01 95.6036 1696.71 55.4036C1669.01 27.7036 1635.41 9.90362 1596.51 2.40362C1587.91 0.803618 1587.01 0.803618 1584.81 2.30362C1581.91 4.20362 1580.51 9.70362 1582.11 12.8036C1583.21 14.7036 1591.31 17.9036 1595.31 17.9036C1598.91 17.9036 1617.11 23.2036 1626.21 26.9036C1640.91 32.8036 1657.01 42.0036 1668.51 51.0036C1676.81 57.4036 1694.01 74.7036 1700.21 82.9036C1719.91 108.804 1732.71 139.104 1737.31 170.904C1738.91 182.004 1738.91 212.204 1737.31 222.404C1731.51 259.704 1716.01 293.004 1691.51 320.404C1664.51 350.704 1629.91 369.804 1589.71 376.604C1578.41 378.504 1551.81 378.704 1539.71 377.004C1501.61 371.604 1465.61 353.004 1439.11 325.104C1424.71 309.904 1416.11 297.504 1406.11 277.804C1381.61 228.804 1381.01 168.504 1404.71 118.104C1414.11 98.3036 1425.91 81.1036 1440.21 66.8036C1465.81 41.2036 1494.91 25.3036 1528.81 18.4036C1535.01 17.1036 1540.91 15.6036 1542.11 15.0036C1547.91 11.9036 1544.21 0.603618 1537.51 1.00362C1536.51 1.10362 1531.91 1.90362 1527.21 2.90362Z" fill="#E84575"/>
<path d="M1210.61 53.3036C1208.91 54.1036 1207.21 55.4036 1206.81 56.4036C1206.51 57.3036 1206.21 133.104 1206.21 224.804V391.604L1208.51 393.704C1211.51 396.504 1216.51 396.604 1219.21 393.904C1221.21 391.904 1221.21 390.604 1221.21 224.504C1221.21 66.5036 1221.11 57.0036 1219.51 55.1036C1217.01 52.3036 1214.31 51.8036 1210.61 53.3036Z" fill="#E84575"/>
<path d="M178.41 57.7036C175.21 58.2036 172.91 62.2036 173.41 66.1036C174.21 71.9036 302.11 394.204 304.41 396.104C309.31 400.304 316.71 397.004 316.51 390.604C316.51 387.504 190.91 67.6036 187.41 61.5036C185.61 58.4036 182.41 57.1036 178.41 57.7036Z" fill="#E84575"/>
<path d="M993.21 87.2036C991.91 87.9036 990.21 89.6036 989.51 90.9036C988.51 92.9036 988.21 124.804 988.21 241.904C988.21 323.604 988.51 391.404 988.81 392.704C989.71 395.804 994.51 398.204 998.31 397.404C1004.61 396.004 1004.21 407.204 1004.21 242.204V92.0036L1002.01 89.5036C999.11 86.4036 996.31 85.6036 993.21 87.2036Z" fill="#E84575"/>
<path d="M442.41 173.204C439.71 176.104 439.61 180.804 442.11 183.604C444.01 185.604 445.21 185.704 485.91 186.204C518.81 186.604 529.11 187.004 534.21 188.304C564.51 195.504 588.61 213.604 601.21 238.904C609.71 255.704 612.81 270.504 611.91 288.904C611.21 302.904 608.71 313.004 602.81 325.404C597.31 337.104 593.71 342.304 584.91 351.604C572.21 364.904 554.81 374.504 534.21 379.604C528.61 381.004 517.11 381.204 451.21 381.604C409.11 381.804 373.71 382.204 372.41 382.404C367.41 383.604 366.51 393.404 371.21 395.904C373.81 397.304 521.71 397.204 531.81 395.804C559.21 392.004 588.01 374.604 605.41 351.504C639.21 306.204 634.81 244.404 594.81 204.404C581.61 191.204 566.31 181.804 548.21 175.904C534.61 171.504 527.41 170.904 484.31 170.904H444.51L442.41 173.204Z" fill="#E84575"/>
</svg>
