<svg version="1.0" xmlns="http://www.w3.org/2000/svg"
 width="1853.000000pt" height="658.000000pt" viewBox="0 0 1853.000000 658.000000"
 preserveAspectRatio="xMidYMid meet">

<g transform="translate(0.000000,658.000000) scale(0.100000,-0.100000)"
fill="currentcolor" stroke="none">
<path d="M0 3290 l0 -3290 9265 0 9265 0 0 3290 0 3290 -9265 0 -9265 0 0
-3290z m2078 1837 c15 -14 22 -32 22 -56 -1 -23 -268 -711 -764 -1961 -719
-1815 -764 -1925 -792 -1937 -42 -18 -58 -16 -88 12 -18 17 -26 34 -26 59 0
22 268 711 754 1938 415 1046 760 1915 767 1930 21 48 82 55 127 15z m4401 8
c56 -29 56 -113 0 -142 -18 -10 -187 -14 -689 -16 -709 -4 -701 -3 -850 -55
-189 -66 -382 -214 -485 -373 -126 -195 -176 -356 -176 -569 0 -361 181 -650
504 -804 189 -90 289 -106 654 -106 285 0 324 -4 349 -38 22 -29 17 -80 -12
-108 l-25 -26 -327 5 c-331 5 -393 11 -532 52 -313 91 -602 345 -710 625 -86
225 -92 526 -14 758 128 382 463 691 844 778 127 29 198 31 823 33 526 1 622
-1 646 -14z m879 -21 l22 -25 0 -1933 0 -1933 -26 -27 c-36 -35 -82 -35 -115
0 l-24 26 -3 1911 c-2 1349 0 1923 8 1949 19 68 91 84 138 32z m2440 0 c13
-15 22 -38 22 -57 1 -29 -80 -112 -932 -959 l-933 -926 933 -934 c881 -883
932 -936 932 -970 0 -61 -70 -101 -125 -70 -11 6 -451 442 -977 969 l-958 958
0 44 0 44 961 956 c529 526 971 962 983 968 28 17 66 8 94 -23z m660 4 c21
-21 22 -27 22 -218 0 -183 -1 -198 -20 -218 -11 -12 -32 -25 -45 -28 -32 -8
-87 24 -96 56 -12 42 -10 344 2 379 21 60 88 74 137 29z m5403 3 c19 -19 29
-40 29 -59 0 -55 -24 -69 -165 -101 -165 -37 -263 -70 -395 -132 -398 -189
-703 -519 -883 -954 -164 -395 -176 -902 -32 -1300 188 -516 557 -902 1045
-1090 363 -141 759 -153 1123 -34 119 39 312 132 418 202 425 281 716 734 795
1242 38 244 26 499 -35 746 -76 307 -255 625 -475 844 -250 248 -563 416 -896
480 -78 15 -100 24 -124 47 -23 24 -27 34 -22 60 12 60 32 71 111 65 136 -12
331 -71 505 -154 210 -99 362 -205 528 -367 318 -310 513 -699 578 -1151 21
-146 21 -425 0 -574 -82 -578 -411 -1089 -903 -1401 -100 -63 -287 -148 -427
-195 -363 -122 -770 -121 -1143 0 -434 142 -807 438 -1053 834 -195 315 -292
666 -292 1056 1 544 201 1030 583 1415 199 201 392 329 647 431 121 49 331
104 445 118 5 1 22 -12 38 -28z m-1716 -7 c30 -33 32 -73 4 -108 l-20 -26
-1553 0 c-1545 0 -1552 0 -1574 20 -40 38 -37 93 7 127 12 10 363 12 1564 13
l1548 0 24 -26z m-1514 -510 l24 -26 3 -1646 c2 -1127 0 -1658 -8 -1683 -18
-66 -99 -84 -140 -31 -20 24 -20 46 -20 1694 l0 1669 25 24 c33 34 83 34 116
-1z m-10331 -47 c20 -21 1294 -3227 1307 -3289 9 -43 -5 -76 -38 -93 -39 -21
-88 -6 -111 33 -16 26 -1227 3092 -1274 3224 -26 71 -22 109 13 136 27 20 78
15 103 -11z m8155 -292 l25 -24 0 -1511 0 -1511 -25 -24 c-33 -34 -83 -34
-116 1 l-24 26 0 1508 0 1508 24 26 c33 35 83 35 116 1z m-4702 -830 c416 -63
772 -362 910 -766 76 -219 76 -499 0 -718 -112 -327 -379 -595 -710 -714 -171
-62 -174 -62 -1020 -62 l-771 0 -26 24 c-31 30 -34 75 -6 111 l19 25 788 6
c841 6 824 5 973 57 311 108 545 378 626 722 20 86 20 294 0 380 -46 193 -130
357 -248 479 -119 122 -296 227 -463 273 -75 20 -108 22 -513 27 l-434 6 -24
28 c-13 15 -24 37 -24 48 0 30 27 77 47 82 10 3 189 5 398 6 288 1 404 -3 478
-14z"/>
</g>
</svg>
